<?xml version="1.0" encoding="UTF-8"?><svg id="uuid-d34c49dd-1ec5-4359-bab8-abd63d23baea" xmlns="http://www.w3.org/2000/svg" viewBox="0 0 1584.18 1769.62"><defs><style>.uuid-945c4017-2f8d-4429-9e94-5d1c0375bc8a{stroke-miterlimit:10;}.uuid-945c4017-2f8d-4429-9e94-5d1c0375bc8a,.uuid-9a80354c-5e77-4834-a3a6-4096e08fb326{fill:#fff;}.uuid-945c4017-2f8d-4429-9e94-5d1c0375bc8a,.uuid-f1cdc78c-0e2b-443d-bba6-718d78b13674{stroke:#263238;stroke-width:20px;}.uuid-f1cdc78c-0e2b-443d-bba6-718d78b13674{fill:#263238;stroke-linecap:round;stroke-linejoin:round;}</style></defs><g id="uuid-c5a8de00-1b5e-4339-a577-c8482ada6d34"><path class="uuid-9a80354c-5e77-4834-a3a6-4096e08fb326" d="M200.05,1769.62c-110.49,0-200.05-89.57-200.05-200.05V200.05c0-53.44,20.81-103.67,58.59-141.46C96.38,20.81,146.61,0,200.05,0h1332.96c28.26,0,51.17,22.91,51.17,51.17v1667.29c0,28.26-22.91,51.17-51.17,51.17H200.05Z"/><path class="uuid-f1cdc78c-0e2b-443d-bba6-718d78b13674" d="M200.05,75c-34.53,0-65.79,13.99-88.42,36.62-22.63,22.63-36.63,53.89-36.63,88.43v1369.52h0c0,69.07,55.99,125.05,125.05,125.05h1309.13v-125.05h0V75H200.05Z"/><path class="uuid-945c4017-2f8d-4429-9e94-5d1c0375bc8a" d="M1452.48,1501.4v136.35H200.05c-37.59,0-68.17-30.58-68.17-68.18,0-10.15,2.23-19.78,6.22-28.44,10.8-23.42,34.5-39.73,61.94-39.73h1252.43Z"/><path class="uuid-9a80354c-5e77-4834-a3a6-4096e08fb326" d="M566.29,683.18c20.99,0,33.36-10.76,39.01-14.8,7.26,4.84,22.06,32.29,27.44,43.32-12.65,15.07-40.63,27.44-72.91,27.44-65.92,0-96.05-45.47-96.05-101.7s40.36-95.78,104.12-95.78c32.82,0,56.23,9.42,64.3,18.03-.27,6.46-13.72,42.78-22.06,49.77-9.69-5.38-26.1-12.38-41.16-12.38-23.41,0-42.51,17.22-42.51,42.78,0,35.24,23.94,43.32,39.82,43.32Z"/><path class="uuid-9a80354c-5e77-4834-a3a6-4096e08fb326" d="M777.76,732.41c-.54,1.88-116.23,1.08-128.33-.54-1.61-18.03-1.61-183.76.54-186.72,1.34-1.88,58.11-3.5,58.38-1.35.81,11.03.54,117.03-.54,136.67,23.14-.81,58.92-1.08,68.88,0,1.88,11.57,2.96,45.74,1.08,51.93Z"/><path class="uuid-9a80354c-5e77-4834-a3a6-4096e08fb326" d="M856.58,545.69c2.15,1.61,1.88,176.76-.54,186.98-1.35,5.65-59.19,3.23-59.46,1.08-1.35-16.14-2.15-163.04.54-187.52,11.3-2.42,57.3-2.15,59.46-.54Z"/><path class="uuid-9a80354c-5e77-4834-a3a6-4096e08fb326" d="M888.6,733.49c-1.08-2.42-4.3-170.3-2.69-188.33,12.11-1.61,135.87-2.42,136.4-.54,1.88,6.19,2.15,39.01.27,50.58-9.96,1.08-55.15.81-78.29,0l1.08,35.51c27.17-.27,60.54.54,62.15,2.15,2.96,2.96,1.08,43.32,1.08,44.66,0,1.61-33.63,1.61-62.15.81.54,25.29.81,48.7.54,53.54-.27,2.15-57.57,3.77-58.38,1.61Z"/><path class="uuid-9a80354c-5e77-4834-a3a6-4096e08fb326" d="M1044.1,733.49c-1.08-2.42-4.3-170.3-2.69-188.33,12.11-1.61,135.87-2.42,136.4-.54,1.88,6.19,2.15,39.01.27,50.58-9.96,1.08-55.15.81-78.29,0l1.08,35.51c27.17-.27,60.54.54,62.15,2.15,2.96,2.96,1.08,43.32,1.08,44.66,0,1.61-33.63,1.61-62.15.81.54,25.29.81,48.7.54,53.54-.27,2.15-57.57,3.77-58.38,1.61Z"/><path class="uuid-9a80354c-5e77-4834-a3a6-4096e08fb326" d="M513.29,988.4c-5.65-7-31.21-51.93-56.23-90.67,0,34.98,1.88,71.83,1.08,87.71-11.3,2.42-57.84,2.69-58.11,0-1.61-11.03-2.42-169.23,0-183.76.81-5.65,54.08-5.65,55.15-3.77,3.77,5.92,36.59,57.84,57.57,98.74.27-39.55-1.34-84.21,0-95.78,11.3-2.42,55.69-1.61,57.84,0s.27,172.99-2.15,183.22c-1.34,5.65-51.39,6.46-55.15,4.3Z"/><path class="uuid-9a80354c-5e77-4834-a3a6-4096e08fb326" d="M782.87,896.93c0,47.89-30.67,95.51-95.78,95.51-58.38,0-96.32-38.47-96.32-101.43,0-48.43,32.29-95.51,95.51-95.51,57.84,0,96.59,38.47,96.59,101.43ZM686.82,849.3c-21.25,0-34.44,16.68-34.44,44.93,0,25.56,13.72,43.58,33.36,43.58,22.06,0,33.63-16.41,33.63-44.93,0-31.75-14.53-43.59-32.55-43.59Z"/><path class="uuid-9a80354c-5e77-4834-a3a6-4096e08fb326" d="M787.71,801.15c1.34-2.15,138.29-5.38,147.17-2.96,4.57.81,3.77,50.31,1.88,50.58-4.84.81-22.87,1.61-44.66,2.42.27,54.62.81,132.64-.54,134.52s-58.11,3.5-58.38,1.34c-1.08-11.03-1.61-84.48-1.08-136.4-19.91.27-36.32,0-43.05-.81-2.15-10.76-2.69-46.81-1.34-48.7Z"/><path class="uuid-9a80354c-5e77-4834-a3a6-4096e08fb326" d="M1088.22,988.13c2.96,1.62-104.93,1.62-133.71-.54-1.35-19.1.54-149.32,2.42-188.06,30.4-1.88,132.91-2.15,133.71-.54,1.88,6.19,2.15,38.74.27,50.31-9.96,1.08-55.15.81-78.29,0l.54,18.03c27.17-.27,55.69.54,57.31,2.15,2.96,2.96.54,46.28.54,47.62,0,1.62-29.6,1.62-58.11.81v20.45c24.21-.81,66.18-.81,75.6,0,1.88,11.57,1.62,43.58-.27,49.77Z"/><path class="uuid-9a80354c-5e77-4834-a3a6-4096e08fb326" d="M1104.36,971.72c-1.34-5.38,13.45-48.97,16.68-47.89,5.65,1.88,27.71,16.68,49.77,16.68,12.11,0,18.03-2.96,18.03-8.88,0-5.38-3.23-9.96-27.71-14.53-34.71-6.46-55.69-22.6-55.69-61.61,0-32.02,26.1-59.46,74.53-59.46,29.33,0,55.69,7,66.19,15.07,4.04,2.96-14.8,46.01-17.76,46.28-1.88.54-23.41-10.49-47.35-10.49-11.84,0-16.68,3.23-16.68,7.8,0,6.73,4.3,8.07,27.17,12.91,31.48,6.73,60.8,19.91,60.8,60.53,0,26.63-20.99,60.54-79.1,60.54-30.13,0-58.11-10.22-68.88-16.95Z"/><rect class="uuid-9a80354c-5e77-4834-a3a6-4096e08fb326" x="401.05" y="1043.77" width="846.81" height="30"/><rect class="uuid-9a80354c-5e77-4834-a3a6-4096e08fb326" x="401.05" y="457.11" width="846.81" height="30"/></g></svg>